<svg width="98" height="100" xmlns="http://www.w3.org/2000/svg"><defs><linearGradient x1="7.786%" y1="0%" x2="90.938%" y2="49.407%" id="b"><stop stop-color="#2C3039" offset="0%"/><stop stop-color="#8A94A7" offset="100%"/></linearGradient><filter x="-90%" y="-90%" width="280%" height="280%" filterUnits="objectBoundingBox" id="a"><feGaussianBlur stdDeviation="12" in="SourceGraphic"/></filter></defs><g fill="none" fill-rule="evenodd"><path fill-opacity=".48" fill="#1D2026" filter="url(#a)" d="M38 48h40v40H38z" transform="translate(-9 -17)"/><path fill="#02CBB1" d="m86.755 88.926 3.46-15.26-39.363 10.387-3.459 15.261z"/><path fill="#0270D7" d="m90.735 53.81 7.137-28.53-77.08 20.354-7.137 28.533z"/><path fill-opacity=".32" fill="#00BFFB" d="m77.35 14.62 6.442-1.712-11.3-12.65-6.443 1.713z"/><path fill="#474C59" d="M46.63 33.718 28.384 61.923l43.659 19.72 18.244-28.206z"/><path fill="#00BFFB" d="m29.746 92.298 3.792-3.59-14.732-4-3.793 3.59z"/><path fill="#2C3039" fill-rule="nonzero" d="m17.685 36.372 10.7 25.55 18.339-28.026L35.015 8.122z"/><path fill="url(#b)" fill-rule="nonzero" d="M49.401 21.254 1.988 27.601l23.588 15.653 47.412-6.346z" transform="rotate(32 52.468 75.451)"/></g></svg>